<svg xmlns="http://www.w3.org/2000/svg" xmlns:xlink="http://www.w3.org/1999/xlink" width="500" zoomAndPan="magnify" viewBox="0 0 375 374.999991" height="500" preserveAspectRatio="xMidYMid meet" version="1.0"><defs><clipPath id="7dd9afd04d"><path d="M 0 0 L 375 0 L 375 373.5 L 0 373.5 Z M 0 0 " clip-rule="nonzero"/></clipPath></defs><g clip-path="url(#7dd9afd04d)"><path fill="#ffffff" d="M 375.320312 32.082031 L 375.320312 190.441406 C 375.300781 208.085938 360.972656 222.386719 343.296875 222.402344 L 334.085938 222.402344 C 342.039062 225.769531 347.207031 233.554688 347.21875 242.179688 L 347.21875 351.828125 C 347.203125 363.683594 337.574219 373.292969 325.695312 373.304688 L 265.539062 373.304688 C 253.664062 373.289062 244.035156 363.683594 244.019531 351.828125 L 244.019531 351.707031 L 242.800781 351.707031 L 242.800781 351.828125 C 242.785156 363.683594 233.15625 373.292969 221.277344 373.304688 L 49.015625 373.304688 C 37.140625 373.289062 27.515625 363.683594 27.496094 351.828125 L 27.496094 242.179688 C 27.507812 233.554688 32.679688 225.769531 40.636719 222.402344 L 30.847656 222.402344 C 13.167969 222.386719 -1.15625 208.085938 -1.179688 190.441406 L -1.179688 32.082031 C -1.15625 14.4375 13.171875 0.140625 30.847656 0.121094 L 343.296875 0.121094 C 360.972656 0.140625 375.296875 14.4375 375.320312 32.082031 Z M 375.320312 32.082031 " fill-opacity="1" fill-rule="nonzero"/></g><path fill="#4c3ce3" d="M 366.710938 32.085938 L 366.710938 190.441406 C 366.710938 203.347656 356.226562 213.8125 343.300781 213.808594 C 343.296875 213.808594 343.296875 213.808594 343.292969 213.808594 L 30.847656 213.808594 C 17.917969 213.8125 7.433594 203.355469 7.429688 190.449219 C 7.429688 190.449219 7.429688 190.445312 7.429688 190.441406 L 7.429688 32.085938 C 7.429688 19.179688 17.914062 8.714844 30.84375 8.71875 C 30.84375 8.71875 30.847656 8.71875 30.847656 8.71875 L 343.292969 8.71875 C 356.222656 8.710938 366.707031 19.167969 366.714844 32.074219 C 366.710938 32.078125 366.710938 32.082031 366.710938 32.085938 Z M 366.710938 32.085938 " fill-opacity="1" fill-rule="nonzero"/><path fill="#ff3d81" d="M 366.710938 32.085938 L 366.710938 40.730469 L 7.429688 40.730469 L 7.429688 32.085938 C 7.429688 19.179688 17.910156 8.714844 30.839844 8.71875 C 30.84375 8.71875 30.84375 8.71875 30.847656 8.71875 L 343.292969 8.71875 C 356.222656 8.710938 366.707031 19.167969 366.714844 32.074219 C 366.710938 32.078125 366.710938 32.082031 366.710938 32.085938 Z M 366.710938 32.085938 " fill-opacity="1" fill-rule="nonzero"/><path fill="#fcc836" d="M 30.304688 24.722656 C 30.304688 25.011719 30.277344 25.300781 30.222656 25.585938 C 30.164062 25.871094 30.082031 26.144531 29.96875 26.414062 C 29.859375 26.683594 29.722656 26.9375 29.558594 27.179688 C 29.398438 27.417969 29.214844 27.640625 29.007812 27.847656 C 28.804688 28.050781 28.582031 28.234375 28.339844 28.398438 C 28.097656 28.558594 27.84375 28.695312 27.574219 28.804688 C 27.304688 28.917969 27.027344 29 26.742188 29.054688 C 26.457031 29.113281 26.171875 29.140625 25.878906 29.140625 C 25.589844 29.140625 25.300781 29.113281 25.015625 29.054688 C 24.730469 29 24.453125 28.917969 24.1875 28.804688 C 23.917969 28.695312 23.664062 28.558594 23.421875 28.398438 C 23.179688 28.234375 22.957031 28.050781 22.75 27.847656 C 22.542969 27.640625 22.359375 27.417969 22.199219 27.179688 C 22.039062 26.9375 21.902344 26.683594 21.789062 26.414062 C 21.679688 26.144531 21.59375 25.871094 21.539062 25.585938 C 21.480469 25.300781 21.453125 25.011719 21.453125 24.722656 C 21.453125 24.433594 21.480469 24.144531 21.539062 23.859375 C 21.59375 23.578125 21.679688 23.300781 21.789062 23.03125 C 21.902344 22.765625 22.039062 22.507812 22.199219 22.269531 C 22.359375 22.027344 22.542969 21.804688 22.75 21.597656 C 22.957031 21.394531 23.179688 21.210938 23.421875 21.050781 C 23.664062 20.886719 23.917969 20.753906 24.1875 20.640625 C 24.453125 20.53125 24.730469 20.445312 25.015625 20.390625 C 25.300781 20.332031 25.589844 20.304688 25.878906 20.304688 C 26.171875 20.304688 26.457031 20.332031 26.742188 20.390625 C 27.027344 20.445312 27.304688 20.53125 27.574219 20.640625 C 27.84375 20.753906 28.097656 20.886719 28.339844 21.050781 C 28.582031 21.210938 28.804688 21.394531 29.007812 21.597656 C 29.214844 21.804688 29.398438 22.027344 29.558594 22.269531 C 29.722656 22.507812 29.859375 22.765625 29.96875 23.03125 C 30.082031 23.300781 30.164062 23.578125 30.222656 23.859375 C 30.277344 24.144531 30.304688 24.433594 30.304688 24.722656 Z M 30.304688 24.722656 " fill-opacity="1" fill-rule="nonzero"/><path fill="#ffffff" d="M 45.175781 24.722656 C 45.175781 25.011719 45.148438 25.300781 45.09375 25.585938 C 45.035156 25.871094 44.953125 26.144531 44.839844 26.414062 C 44.730469 26.683594 44.59375 26.9375 44.429688 27.179688 C 44.269531 27.417969 44.085938 27.640625 43.878906 27.847656 C 43.675781 28.050781 43.453125 28.234375 43.210938 28.398438 C 42.96875 28.558594 42.714844 28.695312 42.445312 28.804688 C 42.175781 28.917969 41.898438 29 41.613281 29.054688 C 41.328125 29.113281 41.042969 29.140625 40.75 29.140625 C 40.460938 29.140625 40.171875 29.113281 39.886719 29.054688 C 39.601562 29 39.324219 28.917969 39.058594 28.804688 C 38.789062 28.695312 38.535156 28.558594 38.292969 28.398438 C 38.050781 28.234375 37.828125 28.050781 37.621094 27.847656 C 37.414062 27.640625 37.230469 27.417969 37.070312 27.179688 C 36.910156 26.9375 36.773438 26.683594 36.660156 26.414062 C 36.550781 26.144531 36.464844 25.871094 36.410156 25.585938 C 36.351562 25.300781 36.324219 25.011719 36.324219 24.722656 C 36.324219 24.433594 36.351562 24.144531 36.410156 23.859375 C 36.464844 23.578125 36.550781 23.300781 36.660156 23.03125 C 36.773438 22.765625 36.910156 22.507812 37.070312 22.269531 C 37.230469 22.027344 37.414062 21.804688 37.621094 21.597656 C 37.828125 21.394531 38.050781 21.210938 38.292969 21.050781 C 38.535156 20.886719 38.789062 20.753906 39.058594 20.640625 C 39.324219 20.53125 39.601562 20.445312 39.886719 20.390625 C 40.171875 20.332031 40.460938 20.304688 40.75 20.304688 C 41.042969 20.304688 41.328125 20.332031 41.613281 20.390625 C 41.898438 20.445312 42.175781 20.53125 42.445312 20.640625 C 42.714844 20.753906 42.96875 20.886719 43.210938 21.050781 C 43.453125 21.210938 43.675781 21.394531 43.878906 21.597656 C 44.085938 21.804688 44.269531 22.027344 44.429688 22.269531 C 44.59375 22.507812 44.730469 22.765625 44.839844 23.03125 C 44.953125 23.300781 45.035156 23.578125 45.09375 23.859375 C 45.148438 24.144531 45.175781 24.433594 45.175781 24.722656 Z M 45.175781 24.722656 " fill-opacity="1" fill-rule="nonzero"/><path fill="#5ed4be" d="M 60.046875 24.722656 C 60.046875 25.011719 60.019531 25.300781 59.964844 25.585938 C 59.90625 25.871094 59.824219 26.144531 59.710938 26.414062 C 59.601562 26.683594 59.464844 26.9375 59.300781 27.179688 C 59.140625 27.417969 58.957031 27.640625 58.753906 27.847656 C 58.546875 28.050781 58.324219 28.234375 58.082031 28.398438 C 57.839844 28.558594 57.585938 28.695312 57.316406 28.804688 C 57.046875 28.917969 56.769531 29 56.484375 29.054688 C 56.199219 29.113281 55.914062 29.140625 55.621094 29.140625 C 55.332031 29.140625 55.042969 29.113281 54.757812 29.054688 C 54.472656 29 54.195312 28.917969 53.929688 28.804688 C 53.660156 28.695312 53.40625 28.558594 53.164062 28.398438 C 52.921875 28.234375 52.699219 28.050781 52.492188 27.847656 C 52.289062 27.640625 52.105469 27.417969 51.941406 27.179688 C 51.78125 26.9375 51.644531 26.683594 51.535156 26.414062 C 51.421875 26.144531 51.339844 25.871094 51.28125 25.585938 C 51.226562 25.300781 51.195312 25.011719 51.195312 24.722656 C 51.195312 24.433594 51.226562 24.144531 51.28125 23.859375 C 51.339844 23.578125 51.421875 23.300781 51.535156 23.03125 C 51.644531 22.765625 51.78125 22.507812 51.941406 22.269531 C 52.105469 22.027344 52.289062 21.804688 52.492188 21.597656 C 52.699219 21.394531 52.921875 21.210938 53.164062 21.050781 C 53.40625 20.886719 53.660156 20.753906 53.929688 20.640625 C 54.195312 20.53125 54.472656 20.445312 54.757812 20.390625 C 55.042969 20.332031 55.332031 20.304688 55.621094 20.304688 C 55.914062 20.304688 56.199219 20.332031 56.484375 20.390625 C 56.769531 20.445312 57.046875 20.53125 57.316406 20.640625 C 57.585938 20.753906 57.839844 20.886719 58.082031 21.050781 C 58.324219 21.210938 58.546875 21.394531 58.753906 21.597656 C 58.957031 21.804688 59.140625 22.027344 59.304688 22.269531 C 59.464844 22.507812 59.601562 22.765625 59.710938 23.03125 C 59.824219 23.300781 59.90625 23.578125 59.964844 23.859375 C 60.019531 24.144531 60.046875 24.433594 60.046875 24.722656 Z M 60.046875 24.722656 " fill-opacity="1" fill-rule="nonzero"/><path fill="#ff3d81" d="M 36.324219 94.082031 L 210.90625 94.082031 L 210.90625 172.445312 L 36.324219 172.445312 Z M 36.324219 94.082031 " fill-opacity="1" fill-rule="nonzero"/><path fill="#43aa99" d="M 210.910156 153.519531 L 178.347656 135.511719 C 171.46875 131.703125 163.949219 131.914062 157.15625 136.105469 L 98.273438 172.445312 L 210.910156 172.445312 Z M 210.910156 153.519531 " fill-opacity="1" fill-rule="nonzero"/><path fill="#5ed4be" d="M 36.324219 143.253906 L 72.277344 115.539062 C 79.953125 109.621094 88.894531 109.367188 96.703125 114.847656 L 178.726562 172.445312 L 36.324219 172.445312 Z M 36.324219 143.253906 " fill-opacity="1" fill-rule="nonzero"/><path fill="#fcc836" d="M 147.574219 118.949219 C 147.574219 119.40625 147.527344 119.859375 147.429688 120.308594 C 147.332031 120.757812 147.1875 121.195312 146.996094 121.617188 C 146.804688 122.042969 146.570312 122.445312 146.292969 122.824219 C 146.015625 123.207031 145.699219 123.558594 145.34375 123.882812 C 144.992188 124.207031 144.605469 124.496094 144.191406 124.75 C 143.777344 125.003906 143.335938 125.21875 142.875 125.394531 C 142.414062 125.570312 141.9375 125.703125 141.445312 125.792969 C 140.957031 125.878906 140.460938 125.925781 139.960938 125.925781 C 139.460938 125.925781 138.964844 125.878906 138.476562 125.792969 C 137.984375 125.703125 137.507812 125.570312 137.046875 125.394531 C 136.585938 125.21875 136.144531 125.003906 135.730469 124.75 C 135.3125 124.496094 134.929688 124.207031 134.574219 123.882812 C 134.222656 123.558594 133.90625 123.207031 133.628906 122.824219 C 133.351562 122.445312 133.117188 122.042969 132.925781 121.617188 C 132.734375 121.195312 132.589844 120.757812 132.492188 120.308594 C 132.394531 119.859375 132.347656 119.40625 132.347656 118.949219 C 132.347656 118.488281 132.394531 118.035156 132.492188 117.585938 C 132.589844 117.136719 132.734375 116.703125 132.925781 116.277344 C 133.117188 115.855469 133.351562 115.453125 133.628906 115.070312 C 133.90625 114.691406 134.222656 114.339844 134.574219 114.015625 C 134.929688 113.691406 135.3125 113.402344 135.730469 113.148438 C 136.144531 112.890625 136.585938 112.675781 137.046875 112.503906 C 137.507812 112.328125 137.984375 112.195312 138.476562 112.105469 C 138.964844 112.015625 139.460938 111.972656 139.960938 111.972656 C 140.460938 111.972656 140.957031 112.015625 141.445312 112.105469 C 141.9375 112.195312 142.414062 112.328125 142.875 112.503906 C 143.335938 112.675781 143.777344 112.890625 144.191406 113.148438 C 144.605469 113.402344 144.992188 113.691406 145.34375 114.015625 C 145.699219 114.339844 146.015625 114.691406 146.292969 115.070312 C 146.570312 115.453125 146.804688 115.855469 146.996094 116.277344 C 147.1875 116.703125 147.332031 117.136719 147.429688 117.585938 C 147.527344 118.035156 147.574219 118.488281 147.574219 118.949219 Z M 147.574219 118.949219 " fill-opacity="1" fill-rule="nonzero"/><path fill="#776cff" d="M 247.757812 108.289062 L 341.492188 108.289062 C 345.542969 108.289062 348.828125 111.566406 348.828125 115.613281 L 348.828125 124.195312 C 348.828125 128.238281 345.542969 131.519531 341.492188 131.519531 L 247.757812 131.519531 C 243.707031 131.519531 240.421875 128.238281 240.421875 124.195312 L 240.421875 115.613281 C 240.421875 111.566406 243.707031 108.289062 247.757812 108.289062 Z M 247.757812 108.289062 " fill-opacity="1" fill-rule="nonzero"/><path fill="#0038a6" d="M 161.640625 66.519531 L 144.558594 66.519531 C 143.566406 66.519531 142.765625 65.71875 142.765625 64.730469 C 142.765625 63.742188 143.566406 62.941406 144.558594 62.941406 L 161.640625 62.941406 C 162.632812 62.941406 163.433594 63.742188 163.433594 64.730469 C 163.433594 65.71875 162.632812 66.519531 161.640625 66.519531 Z M 161.640625 66.519531 " fill-opacity="1" fill-rule="nonzero"/><path fill="#0038a6" d="M 204.15625 66.519531 L 187.070312 66.519531 C 186.082031 66.519531 185.28125 65.71875 185.28125 64.730469 C 185.28125 63.742188 186.082031 62.941406 187.070312 62.941406 L 204.15625 62.941406 C 205.144531 62.941406 205.945312 63.742188 205.945312 64.730469 C 205.945312 65.71875 205.144531 66.519531 204.15625 66.519531 Z M 204.15625 66.519531 " fill-opacity="1" fill-rule="nonzero"/><path fill="#0038a6" d="M 246.667969 66.519531 L 229.585938 66.519531 C 228.59375 66.519531 227.792969 65.71875 227.792969 64.730469 C 227.792969 63.742188 228.59375 62.941406 229.585938 62.941406 L 246.667969 62.941406 C 247.65625 62.941406 248.460938 63.742188 248.460938 64.730469 C 248.460938 65.71875 247.660156 66.519531 246.667969 66.519531 Z M 246.667969 66.519531 " fill-opacity="1" fill-rule="nonzero"/><path fill="#0038a6" d="M 289.183594 66.519531 L 272.097656 66.519531 C 271.109375 66.519531 270.304688 65.71875 270.304688 64.730469 C 270.304688 63.742188 271.109375 62.941406 272.097656 62.941406 L 289.183594 62.941406 C 290.171875 62.941406 290.972656 63.742188 290.972656 64.730469 C 290.972656 65.71875 290.171875 66.519531 289.183594 66.519531 Z M 289.183594 66.519531 " fill-opacity="1" fill-rule="nonzero"/><path fill="#776cff" d="M 348.828125 64.730469 C 348.828125 65.148438 348.789062 65.5625 348.707031 65.972656 C 348.625 66.386719 348.503906 66.785156 348.34375 67.171875 C 348.183594 67.558594 347.984375 67.925781 347.753906 68.273438 C 347.519531 68.621094 347.253906 68.941406 346.957031 69.238281 C 346.660156 69.535156 346.339844 69.796875 345.992188 70.03125 C 345.640625 70.261719 345.273438 70.460938 344.886719 70.621094 C 344.5 70.78125 344.101562 70.902344 343.6875 70.984375 C 343.277344 71.0625 342.863281 71.105469 342.441406 71.105469 C 342.023438 71.105469 341.609375 71.0625 341.199219 70.984375 C 340.785156 70.902344 340.386719 70.78125 340 70.621094 C 339.613281 70.460938 339.246094 70.261719 338.894531 70.03125 C 338.546875 69.796875 338.222656 69.535156 337.929688 69.238281 C 337.632812 68.941406 337.367188 68.621094 337.132812 68.273438 C 336.902344 67.925781 336.703125 67.558594 336.542969 67.171875 C 336.382812 66.785156 336.261719 66.386719 336.179688 65.972656 C 336.097656 65.5625 336.058594 65.148438 336.058594 64.730469 C 336.058594 64.3125 336.097656 63.898438 336.179688 63.488281 C 336.261719 63.078125 336.382812 62.679688 336.542969 62.292969 C 336.703125 61.90625 336.902344 61.539062 337.132812 61.1875 C 337.367188 60.839844 337.632812 60.519531 337.929688 60.222656 C 338.222656 59.925781 338.546875 59.664062 338.894531 59.429688 C 339.246094 59.199219 339.613281 59 340 58.839844 C 340.386719 58.679688 340.785156 58.5625 341.199219 58.480469 C 341.609375 58.398438 342.023438 58.355469 342.441406 58.355469 C 342.863281 58.355469 343.277344 58.398438 343.6875 58.480469 C 344.101562 58.5625 344.5 58.679688 344.886719 58.839844 C 345.273438 59 345.640625 59.199219 345.992188 59.429688 C 346.339844 59.664062 346.660156 59.925781 346.957031 60.222656 C 347.253906 60.519531 347.519531 60.839844 347.753906 61.1875 C 347.984375 61.539062 348.183594 61.90625 348.34375 62.292969 C 348.503906 62.679688 348.625 63.078125 348.707031 63.488281 C 348.789062 63.898438 348.828125 64.3125 348.828125 64.730469 Z M 348.828125 64.730469 " fill-opacity="1" fill-rule="nonzero"/><path fill="#fcc836" d="M 31.46875 55.878906 L 62.070312 55.878906 C 65.160156 55.878906 67.660156 58.378906 67.660156 61.460938 L 67.660156 68 C 67.660156 71.082031 65.160156 73.582031 62.070312 73.582031 L 31.46875 73.582031 C 28.382812 73.582031 25.878906 71.082031 25.878906 68 L 25.878906 61.460938 C 25.878906 58.378906 28.382812 55.878906 31.46875 55.878906 Z M 31.46875 55.878906 " fill-opacity="1" fill-rule="nonzero"/><path fill="#ffffff" d="M 348.828125 149.121094 L 255.605469 149.121094 C 254.566406 149.121094 253.722656 148.277344 253.722656 147.242188 C 253.722656 146.203125 254.566406 145.363281 255.605469 145.363281 L 348.828125 145.363281 C 349.867188 145.363281 350.710938 146.203125 350.710938 147.242188 C 350.710938 148.277344 349.867188 149.121094 348.828125 149.121094 Z M 348.828125 149.121094 " fill-opacity="1" fill-rule="nonzero"/><path fill="#ffffff" d="M 348.828125 164.84375 L 240.421875 164.84375 C 239.382812 164.84375 238.539062 164 238.539062 162.964844 C 238.539062 161.925781 239.382812 161.085938 240.421875 161.085938 L 348.828125 161.085938 C 349.867188 161.085938 350.710938 161.925781 350.710938 162.964844 C 350.710938 164 349.867188 164.84375 348.828125 164.84375 Z M 348.828125 164.84375 " fill-opacity="1" fill-rule="nonzero"/><path fill="#776cff" d="M 210.171875 201.273438 L 163.175781 201.273438 C 162.136719 201.273438 161.292969 200.433594 161.292969 199.394531 C 161.292969 198.359375 162.136719 197.515625 163.175781 197.515625 L 210.171875 197.515625 C 211.210938 197.515625 212.054688 198.359375 212.054688 199.394531 C 212.054688 200.433594 211.210938 201.273438 210.171875 201.273438 Z M 210.171875 201.273438 " fill-opacity="1" fill-rule="nonzero"/><path fill="#4c3ce3" d="M 234.195312 242.179688 L 234.195312 351.824219 C 234.195312 358.941406 228.417969 364.710938 221.289062 364.710938 C 221.285156 364.710938 221.285156 364.710938 221.28125 364.710938 L 49.019531 364.710938 C 41.890625 364.714844 36.109375 358.949219 36.105469 351.832031 C 36.105469 351.832031 36.105469 351.828125 36.105469 351.828125 L 36.105469 242.179688 C 36.105469 235.066406 41.886719 229.296875 49.011719 229.296875 C 49.015625 229.296875 49.015625 229.296875 49.019531 229.296875 L 221.28125 229.296875 C 228.410156 229.292969 234.191406 235.0625 234.195312 242.175781 C 234.195312 242.175781 234.195312 242.179688 234.195312 242.179688 Z M 234.195312 242.179688 " fill-opacity="1" fill-rule="nonzero"/><path fill="#ff3d81" d="M 234.195312 242.179688 L 234.195312 246.945312 L 36.105469 246.945312 L 36.105469 242.179688 C 36.105469 235.066406 41.886719 229.296875 49.011719 229.296875 C 49.015625 229.296875 49.015625 229.296875 49.019531 229.296875 L 221.28125 229.296875 C 228.410156 229.292969 234.191406 235.0625 234.195312 242.175781 C 234.195312 242.175781 234.195312 242.179688 234.195312 242.179688 Z M 234.195312 242.179688 " fill-opacity="1" fill-rule="nonzero"/><path fill="#fcc836" d="M 48.71875 238.121094 C 48.71875 238.445312 48.65625 238.757812 48.535156 239.054688 C 48.410156 239.351562 48.234375 239.617188 48.003906 239.84375 C 47.777344 240.074219 47.511719 240.25 47.214844 240.371094 C 46.914062 240.496094 46.601562 240.558594 46.28125 240.558594 C 45.957031 240.558594 45.644531 240.496094 45.34375 240.371094 C 45.046875 240.25 44.78125 240.074219 44.554688 239.84375 C 44.324219 239.617188 44.148438 239.351562 44.023438 239.054688 C 43.902344 238.757812 43.839844 238.445312 43.839844 238.121094 C 43.839844 237.800781 43.902344 237.488281 44.023438 237.191406 C 44.148438 236.890625 44.324219 236.628906 44.554688 236.398438 C 44.78125 236.171875 45.046875 235.996094 45.34375 235.871094 C 45.644531 235.746094 45.957031 235.6875 46.28125 235.6875 C 46.601562 235.6875 46.914062 235.746094 47.214844 235.871094 C 47.511719 235.996094 47.777344 236.171875 48.003906 236.398438 C 48.234375 236.628906 48.410156 236.890625 48.535156 237.191406 C 48.65625 237.488281 48.71875 237.800781 48.71875 238.121094 Z M 48.71875 238.121094 " fill-opacity="1" fill-rule="nonzero"/><path fill="#ffffff" d="M 56.917969 238.121094 C 56.917969 238.445312 56.855469 238.757812 56.734375 239.054688 C 56.609375 239.351562 56.433594 239.617188 56.203125 239.84375 C 55.976562 240.074219 55.710938 240.25 55.410156 240.371094 C 55.113281 240.496094 54.800781 240.558594 54.476562 240.558594 C 54.15625 240.558594 53.84375 240.496094 53.542969 240.371094 C 53.246094 240.25 52.980469 240.074219 52.753906 239.84375 C 52.523438 239.617188 52.347656 239.351562 52.222656 239.054688 C 52.097656 238.757812 52.039062 238.445312 52.039062 238.121094 C 52.039062 237.800781 52.097656 237.488281 52.222656 237.191406 C 52.347656 236.890625 52.523438 236.628906 52.753906 236.398438 C 52.980469 236.171875 53.246094 235.996094 53.542969 235.871094 C 53.84375 235.746094 54.15625 235.6875 54.476562 235.6875 C 54.800781 235.6875 55.113281 235.746094 55.410156 235.871094 C 55.710938 235.996094 55.976562 236.171875 56.203125 236.398438 C 56.433594 236.628906 56.609375 236.890625 56.734375 237.191406 C 56.855469 237.488281 56.917969 237.800781 56.917969 238.121094 Z M 56.917969 238.121094 " fill-opacity="1" fill-rule="nonzero"/><path fill="#5ed4be" d="M 65.117188 238.121094 C 65.117188 238.445312 65.054688 238.757812 64.933594 239.054688 C 64.808594 239.351562 64.632812 239.617188 64.402344 239.84375 C 64.175781 240.074219 63.910156 240.25 63.613281 240.371094 C 63.3125 240.496094 63 240.558594 62.675781 240.558594 C 62.355469 240.558594 62.042969 240.496094 61.742188 240.371094 C 61.445312 240.25 61.179688 240.074219 60.953125 239.84375 C 60.722656 239.617188 60.546875 239.351562 60.421875 239.054688 C 60.300781 238.757812 60.238281 238.445312 60.238281 238.121094 C 60.238281 237.800781 60.300781 237.488281 60.421875 237.191406 C 60.546875 236.890625 60.722656 236.628906 60.953125 236.398438 C 61.179688 236.171875 61.445312 235.996094 61.742188 235.871094 C 62.042969 235.746094 62.355469 235.6875 62.675781 235.6875 C 63 235.6875 63.3125 235.746094 63.613281 235.871094 C 63.910156 235.996094 64.175781 236.171875 64.402344 236.398438 C 64.632812 236.628906 64.808594 236.890625 64.933594 237.191406 C 65.054688 237.488281 65.117188 237.800781 65.117188 238.121094 Z M 65.117188 238.121094 " fill-opacity="1" fill-rule="nonzero"/><path fill="#ff3d81" d="M 52.039062 276.363281 L 148.292969 276.363281 L 148.292969 319.566406 L 52.039062 319.566406 Z M 52.039062 276.363281 " fill-opacity="1" fill-rule="nonzero"/><path fill="#43aa99" d="M 148.292969 309.132812 L 130.339844 299.203125 C 126.695312 297.101562 122.175781 297.230469 118.65625 299.53125 L 86.191406 319.566406 L 148.292969 319.566406 Z M 148.292969 309.132812 " fill-opacity="1" fill-rule="nonzero"/><path fill="#5ed4be" d="M 52.039062 303.472656 L 71.863281 288.191406 C 76.09375 284.925781 81.023438 284.789062 85.328125 287.8125 L 130.550781 319.570312 L 52.039062 319.570312 Z M 52.039062 303.472656 " fill-opacity="1" fill-rule="nonzero"/><path fill="#fcc836" d="M 113.375 290.074219 C 113.375 290.324219 113.347656 290.574219 113.292969 290.824219 C 113.242188 291.070312 113.160156 291.3125 113.054688 291.542969 C 112.949219 291.777344 112.820312 292 112.667969 292.210938 C 112.515625 292.417969 112.339844 292.613281 112.144531 292.792969 C 111.949219 292.972656 111.738281 293.128906 111.507812 293.269531 C 111.28125 293.410156 111.039062 293.53125 110.785156 293.625 C 110.527344 293.722656 110.265625 293.796875 109.996094 293.84375 C 109.726562 293.894531 109.453125 293.917969 109.175781 293.917969 C 108.902344 293.917969 108.628906 293.894531 108.359375 293.84375 C 108.085938 293.796875 107.824219 293.722656 107.570312 293.625 C 107.316406 293.53125 107.074219 293.410156 106.84375 293.269531 C 106.613281 293.128906 106.402344 292.972656 106.207031 292.792969 C 106.011719 292.613281 105.839844 292.417969 105.683594 292.210938 C 105.53125 292 105.402344 291.777344 105.296875 291.542969 C 105.191406 291.3125 105.113281 291.070312 105.058594 290.824219 C 105.003906 290.574219 104.976562 290.324219 104.976562 290.074219 C 104.976562 289.820312 105.003906 289.570312 105.058594 289.320312 C 105.113281 289.074219 105.191406 288.835938 105.296875 288.601562 C 105.402344 288.367188 105.53125 288.144531 105.683594 287.9375 C 105.839844 287.726562 106.011719 287.53125 106.207031 287.351562 C 106.402344 287.175781 106.613281 287.015625 106.84375 286.875 C 107.074219 286.734375 107.316406 286.617188 107.570312 286.519531 C 107.824219 286.421875 108.085938 286.347656 108.359375 286.300781 C 108.628906 286.25 108.902344 286.226562 109.175781 286.226562 C 109.453125 286.226562 109.726562 286.25 109.996094 286.300781 C 110.265625 286.347656 110.527344 286.421875 110.785156 286.519531 C 111.039062 286.617188 111.28125 286.734375 111.507812 286.875 C 111.738281 287.015625 111.949219 287.175781 112.144531 287.351562 C 112.339844 287.53125 112.515625 287.726562 112.667969 287.9375 C 112.820312 288.144531 112.949219 288.367188 113.054688 288.601562 C 113.160156 288.835938 113.242188 289.074219 113.292969 289.320312 C 113.347656 289.570312 113.375 289.820312 113.375 290.074219 Z M 113.375 290.074219 " fill-opacity="1" fill-rule="nonzero"/><path fill="#776cff" d="M 167.632812 284.195312 L 221.265625 284.195312 C 222.960938 284.195312 224.332031 285.566406 224.332031 287.257812 L 224.332031 293.941406 C 224.332031 295.632812 222.960938 297.003906 221.265625 297.003906 L 167.632812 297.003906 C 165.9375 297.003906 164.566406 295.632812 164.566406 293.941406 L 164.566406 287.257812 C 164.566406 285.566406 165.9375 284.195312 167.632812 284.195312 Z M 167.632812 284.195312 " fill-opacity="1" fill-rule="nonzero"/><path fill="#0038a6" d="M 121.128906 261.96875 L 111.710938 261.96875 C 110.722656 261.964844 109.921875 261.164062 109.921875 260.175781 C 109.921875 259.191406 110.722656 258.390625 111.710938 258.390625 L 121.128906 258.390625 C 122.117188 258.390625 122.917969 259.195312 122.917969 260.183594 C 122.917969 261.167969 122.117188 261.964844 121.128906 261.96875 Z M 121.128906 261.96875 " fill-opacity="1" fill-rule="nonzero"/><path fill="#0038a6" d="M 144.570312 261.96875 L 135.148438 261.96875 C 134.160156 261.964844 133.359375 261.164062 133.363281 260.175781 C 133.363281 259.191406 134.164062 258.390625 135.148438 258.390625 L 144.570312 258.390625 C 145.558594 258.390625 146.359375 259.195312 146.359375 260.183594 C 146.359375 261.167969 145.558594 261.964844 144.570312 261.96875 Z M 144.570312 261.96875 " fill-opacity="1" fill-rule="nonzero"/><path fill="#0038a6" d="M 168.007812 261.96875 L 158.589844 261.96875 C 157.601562 261.964844 156.800781 261.164062 156.800781 260.175781 C 156.800781 259.191406 157.601562 258.390625 158.589844 258.390625 L 168.007812 258.390625 C 168.996094 258.390625 169.796875 259.195312 169.796875 260.183594 C 169.796875 261.167969 168.996094 261.964844 168.007812 261.96875 Z M 168.007812 261.96875 " fill-opacity="1" fill-rule="nonzero"/><path fill="#0038a6" d="M 191.449219 261.96875 L 182.03125 261.96875 C 181.039062 261.964844 180.238281 261.164062 180.242188 260.175781 C 180.242188 259.191406 181.042969 258.390625 182.03125 258.390625 L 191.449219 258.390625 C 192.4375 258.390625 193.238281 259.195312 193.238281 260.183594 C 193.234375 261.167969 192.4375 261.964844 191.449219 261.96875 Z M 191.449219 261.96875 " fill-opacity="1" fill-rule="nonzero"/><path fill="#776cff" d="M 224.332031 260.179688 C 224.332031 260.644531 224.246094 261.09375 224.066406 261.523438 C 223.886719 261.957031 223.632812 262.335938 223.300781 262.664062 C 222.972656 262.996094 222.59375 263.25 222.160156 263.425781 C 221.730469 263.605469 221.28125 263.695312 220.8125 263.695312 C 220.347656 263.695312 219.898438 263.605469 219.464844 263.425781 C 219.035156 263.25 218.652344 262.996094 218.324219 262.664062 C 217.992188 262.335938 217.738281 261.957031 217.5625 261.523438 C 217.382812 261.09375 217.292969 260.644531 217.292969 260.179688 C 217.292969 259.714844 217.382812 259.265625 217.5625 258.835938 C 217.738281 258.40625 217.992188 258.023438 218.324219 257.695312 C 218.652344 257.367188 219.035156 257.113281 219.464844 256.933594 C 219.898438 256.753906 220.347656 256.667969 220.8125 256.667969 C 221.28125 256.667969 221.730469 256.753906 222.160156 256.933594 C 222.59375 257.113281 222.972656 257.367188 223.300781 257.695312 C 223.632812 258.023438 223.886719 258.40625 224.066406 258.835938 C 224.246094 259.265625 224.332031 259.714844 224.332031 260.179688 Z M 224.332031 260.179688 " fill-opacity="1" fill-rule="nonzero"/><path fill="#fcc836" d="M 48.617188 255.300781 L 66.980469 255.300781 C 68.269531 255.300781 69.316406 256.34375 69.316406 257.632812 L 69.316406 262.726562 C 69.316406 264.015625 68.269531 265.0625 66.980469 265.0625 L 48.617188 265.0625 C 47.324219 265.0625 46.28125 264.015625 46.28125 262.726562 L 46.28125 257.632812 C 46.28125 256.34375 47.324219 255.300781 48.617188 255.300781 Z M 48.617188 255.300781 " fill-opacity="1" fill-rule="nonzero"/><path fill="#ffffff" d="M 224.332031 307.550781 L 172.9375 307.550781 C 171.894531 307.550781 171.054688 306.710938 171.054688 305.671875 C 171.054688 304.632812 171.894531 303.792969 172.9375 303.792969 L 224.332031 303.792969 C 225.375 303.792969 226.214844 304.632812 226.214844 305.671875 C 226.214844 306.710938 225.375 307.550781 224.332031 307.550781 Z M 224.332031 307.550781 " fill-opacity="1" fill-rule="nonzero"/><path fill="#ffffff" d="M 224.332031 316.21875 L 164.5625 316.21875 C 163.523438 316.21875 162.683594 315.378906 162.683594 314.339844 C 162.683594 313.300781 163.523438 312.460938 164.5625 312.460938 L 224.332031 312.460938 C 225.375 312.460938 226.214844 313.300781 226.214844 314.339844 C 226.214844 315.378906 225.375 316.21875 224.332031 316.21875 Z M 224.332031 316.21875 " fill-opacity="1" fill-rule="nonzero"/><path fill="#776cff" d="M 147.886719 358.640625 L 121.976562 358.640625 C 120.9375 358.640625 120.09375 357.796875 120.09375 356.761719 C 120.09375 355.722656 120.9375 354.882812 121.976562 354.882812 L 147.886719 354.882812 C 148.925781 354.882812 149.769531 355.722656 149.769531 356.761719 C 149.769531 357.796875 148.925781 358.640625 147.886719 358.640625 Z M 147.886719 358.640625 " fill-opacity="1" fill-rule="nonzero"/><path fill="#4c3ce3" d="M 338.613281 242.179688 L 338.613281 351.824219 C 338.613281 358.941406 332.835938 364.710938 325.707031 364.710938 C 325.703125 364.710938 325.699219 364.710938 325.695312 364.710938 L 265.539062 364.710938 C 258.414062 364.714844 252.632812 358.949219 252.628906 351.832031 C 252.628906 351.832031 252.628906 351.828125 252.628906 351.828125 L 252.628906 242.179688 C 252.628906 235.066406 258.410156 229.296875 265.535156 229.296875 C 265.539062 229.296875 265.539062 229.296875 265.542969 229.296875 L 325.699219 229.296875 C 332.828125 229.292969 338.609375 235.058594 338.613281 242.175781 C 338.613281 242.175781 338.613281 242.179688 338.613281 242.179688 Z M 338.613281 242.179688 " fill-opacity="1" fill-rule="nonzero"/><path fill="#ff3d81" d="M 338.613281 242.179688 L 338.613281 246.945312 L 252.628906 246.945312 L 252.628906 242.179688 C 252.628906 235.066406 258.410156 229.296875 265.535156 229.296875 C 265.539062 229.296875 265.539062 229.296875 265.542969 229.296875 L 325.699219 229.296875 C 332.828125 229.292969 338.609375 235.058594 338.613281 242.175781 C 338.613281 242.175781 338.613281 242.179688 338.613281 242.179688 Z M 338.613281 242.179688 " fill-opacity="1" fill-rule="nonzero"/><path fill="#fcc836" d="M 265.242188 238.121094 C 265.242188 238.445312 265.179688 238.757812 265.058594 239.054688 C 264.933594 239.351562 264.757812 239.617188 264.527344 239.84375 C 264.300781 240.074219 264.035156 240.25 263.734375 240.371094 C 263.4375 240.496094 263.125 240.558594 262.800781 240.558594 C 262.480469 240.558594 262.167969 240.496094 261.867188 240.371094 C 261.570312 240.25 261.304688 240.074219 261.078125 239.84375 C 260.847656 239.617188 260.671875 239.351562 260.546875 239.054688 C 260.421875 238.757812 260.363281 238.445312 260.363281 238.121094 C 260.363281 237.800781 260.421875 237.488281 260.546875 237.191406 C 260.671875 236.890625 260.847656 236.628906 261.078125 236.398438 C 261.304688 236.171875 261.570312 235.996094 261.867188 235.871094 C 262.167969 235.746094 262.480469 235.6875 262.800781 235.6875 C 263.125 235.6875 263.4375 235.746094 263.734375 235.871094 C 264.035156 235.996094 264.300781 236.171875 264.527344 236.398438 C 264.757812 236.628906 264.933594 236.890625 265.058594 237.191406 C 265.179688 237.488281 265.242188 237.800781 265.242188 238.121094 Z M 265.242188 238.121094 " fill-opacity="1" fill-rule="nonzero"/><path fill="#ffffff" d="M 273.441406 238.121094 C 273.441406 238.445312 273.378906 238.757812 273.257812 239.054688 C 273.132812 239.351562 272.957031 239.617188 272.726562 239.84375 C 272.5 240.074219 272.234375 240.25 271.933594 240.371094 C 271.636719 240.496094 271.324219 240.558594 271 240.558594 C 270.679688 240.558594 270.367188 240.496094 270.066406 240.371094 C 269.769531 240.25 269.503906 240.074219 269.277344 239.84375 C 269.046875 239.617188 268.871094 239.351562 268.746094 239.054688 C 268.621094 238.757812 268.5625 238.445312 268.5625 238.121094 C 268.5625 237.800781 268.621094 237.488281 268.746094 237.191406 C 268.871094 236.890625 269.046875 236.628906 269.277344 236.398438 C 269.503906 236.171875 269.769531 235.996094 270.066406 235.871094 C 270.367188 235.746094 270.679688 235.6875 271 235.6875 C 271.324219 235.6875 271.636719 235.746094 271.933594 235.871094 C 272.234375 235.996094 272.5 236.171875 272.726562 236.398438 C 272.957031 236.628906 273.132812 236.890625 273.257812 237.191406 C 273.378906 237.488281 273.441406 237.800781 273.441406 238.121094 Z M 273.441406 238.121094 " fill-opacity="1" fill-rule="nonzero"/><path fill="#5ed4be" d="M 281.640625 238.121094 C 281.640625 238.445312 281.578125 238.757812 281.457031 239.054688 C 281.332031 239.351562 281.15625 239.617188 280.925781 239.84375 C 280.699219 240.074219 280.433594 240.25 280.136719 240.371094 C 279.835938 240.496094 279.523438 240.558594 279.199219 240.558594 C 278.878906 240.558594 278.566406 240.496094 278.265625 240.371094 C 277.96875 240.25 277.703125 240.074219 277.476562 239.84375 C 277.246094 239.617188 277.070312 239.351562 276.945312 239.054688 C 276.824219 238.757812 276.761719 238.445312 276.761719 238.121094 C 276.761719 237.800781 276.824219 237.488281 276.945312 237.191406 C 277.070312 236.890625 277.246094 236.628906 277.476562 236.398438 C 277.703125 236.171875 277.96875 235.996094 278.265625 235.871094 C 278.566406 235.746094 278.878906 235.6875 279.199219 235.6875 C 279.523438 235.6875 279.835938 235.746094 280.136719 235.871094 C 280.433594 235.996094 280.699219 236.171875 280.925781 236.398438 C 281.15625 236.628906 281.332031 236.890625 281.457031 237.191406 C 281.578125 237.488281 281.640625 237.800781 281.640625 238.121094 Z M 281.640625 238.121094 " fill-opacity="1" fill-rule="nonzero"/><path fill="#ff3d81" d="M 258.316406 268.898438 L 332.925781 268.898438 L 332.925781 302.386719 L 258.316406 302.386719 Z M 258.316406 268.898438 " fill-opacity="1" fill-rule="nonzero"/><path fill="#43aa99" d="M 332.925781 294.296875 L 319.011719 286.601562 C 316.1875 284.972656 312.683594 285.070312 309.957031 286.855469 L 284.792969 302.386719 L 332.925781 302.386719 Z M 332.925781 294.296875 " fill-opacity="1" fill-rule="nonzero"/><path fill="#5ed4be" d="M 258.316406 289.910156 L 273.679688 278.066406 C 276.660156 275.546875 280.996094 275.421875 284.113281 277.769531 L 319.167969 302.382812 L 258.316406 302.382812 Z M 258.316406 289.910156 " fill-opacity="1" fill-rule="nonzero"/><path fill="#fcc836" d="M 305.859375 279.523438 C 305.859375 279.917969 305.777344 280.300781 305.613281 280.664062 C 305.449219 281.03125 305.210938 281.351562 304.90625 281.632812 C 304.601562 281.910156 304.25 282.125 303.851562 282.277344 C 303.453125 282.429688 303.039062 282.503906 302.605469 282.503906 C 302.175781 282.503906 301.757812 282.429688 301.359375 282.277344 C 300.960938 282.125 300.609375 281.910156 300.304688 281.632812 C 300 281.351562 299.765625 281.03125 299.597656 280.664062 C 299.433594 280.300781 299.351562 279.917969 299.351562 279.523438 C 299.351562 279.128906 299.433594 278.746094 299.597656 278.382812 C 299.765625 278.015625 300 277.695312 300.304688 277.414062 C 300.609375 277.136719 300.960938 276.921875 301.359375 276.769531 C 301.757812 276.617188 302.175781 276.542969 302.605469 276.542969 C 303.039062 276.542969 303.453125 276.617188 303.851562 276.769531 C 304.25 276.921875 304.601562 277.136719 304.90625 277.414062 C 305.210938 277.695312 305.449219 278.015625 305.613281 278.382812 C 305.777344 278.746094 305.859375 279.128906 305.859375 279.523438 Z M 305.859375 279.523438 " fill-opacity="1" fill-rule="nonzero"/><path fill="#776cff" d="M 262.585938 309.640625 L 297.910156 309.640625 C 299.027344 309.640625 299.929688 310.542969 299.929688 311.65625 L 299.929688 316.058594 C 299.929688 317.171875 299.027344 318.074219 297.910156 318.074219 L 262.585938 318.074219 C 261.472656 318.074219 260.566406 317.171875 260.566406 316.058594 L 260.566406 311.65625 C 260.566406 310.542969 261.472656 309.640625 262.585938 309.640625 Z M 262.585938 309.640625 " fill-opacity="1" fill-rule="nonzero"/><path fill="#0038a6" d="M 284.960938 259.527344 L 280.25 259.527344 C 279.261719 259.527344 278.460938 258.726562 278.460938 257.738281 C 278.464844 256.753906 279.261719 255.953125 280.25 255.953125 L 284.960938 255.953125 C 285.949219 255.953125 286.75 256.753906 286.75 257.742188 C 286.75 258.730469 285.949219 259.527344 284.960938 259.527344 Z M 284.960938 259.527344 " fill-opacity="1" fill-rule="nonzero"/><path fill="#0038a6" d="M 296.679688 259.527344 L 291.96875 259.527344 C 290.980469 259.53125 290.175781 258.730469 290.175781 257.742188 C 290.171875 256.753906 290.972656 255.953125 291.964844 255.953125 C 291.964844 255.953125 291.964844 255.953125 291.96875 255.953125 L 296.679688 255.953125 C 297.667969 255.949219 298.472656 256.75 298.472656 257.738281 C 298.472656 258.726562 297.671875 259.527344 296.683594 259.527344 C 296.679688 259.527344 296.679688 259.527344 296.679688 259.527344 Z M 296.679688 259.527344 " fill-opacity="1" fill-rule="nonzero"/><path fill="#0038a6" d="M 308.398438 259.527344 L 303.6875 259.527344 C 302.699219 259.53125 301.894531 258.730469 301.894531 257.742188 C 301.894531 256.753906 302.695312 255.953125 303.683594 255.953125 C 303.6875 255.953125 303.6875 255.953125 303.6875 255.953125 L 308.398438 255.953125 C 309.386719 255.953125 310.1875 256.753906 310.1875 257.742188 C 310.1875 258.730469 309.386719 259.527344 308.398438 259.527344 Z M 308.398438 259.527344 " fill-opacity="1" fill-rule="nonzero"/><path fill="#0038a6" d="M 320.117188 259.527344 L 315.40625 259.527344 C 314.417969 259.527344 313.617188 258.726562 313.617188 257.738281 C 313.621094 256.753906 314.421875 255.953125 315.40625 255.953125 L 320.117188 255.953125 C 321.105469 255.953125 321.90625 256.753906 321.90625 257.742188 C 321.90625 258.730469 321.105469 259.527344 320.117188 259.527344 Z M 320.117188 259.527344 " fill-opacity="1" fill-rule="nonzero"/><path fill="#776cff" d="M 331.984375 257.742188 C 331.984375 257.972656 331.9375 258.199219 331.847656 258.414062 C 331.757812 258.628906 331.632812 258.816406 331.46875 258.984375 C 331.300781 259.148438 331.113281 259.273438 330.894531 259.363281 C 330.679688 259.453125 330.457031 259.496094 330.222656 259.496094 C 329.988281 259.496094 329.765625 259.453125 329.546875 259.363281 C 329.332031 259.273438 329.140625 259.148438 328.976562 258.984375 C 328.8125 258.816406 328.683594 258.628906 328.59375 258.414062 C 328.507812 258.199219 328.460938 257.972656 328.460938 257.742188 C 328.460938 257.507812 328.507812 257.285156 328.59375 257.066406 C 328.683594 256.851562 328.8125 256.664062 328.976562 256.496094 C 329.140625 256.332031 329.332031 256.207031 329.546875 256.117188 C 329.765625 256.027344 329.988281 255.984375 330.222656 255.984375 C 330.457031 255.984375 330.679688 256.027344 330.894531 256.117188 C 331.113281 256.207031 331.300781 256.332031 331.46875 256.496094 C 331.632812 256.664062 331.757812 256.851562 331.847656 257.066406 C 331.9375 257.285156 331.984375 257.507812 331.984375 257.742188 Z M 331.984375 257.742188 " fill-opacity="1" fill-rule="nonzero"/><path fill="#fcc836" d="M 260.429688 255.300781 L 269.609375 255.300781 C 270.253906 255.300781 270.777344 255.824219 270.777344 256.46875 L 270.777344 259.015625 C 270.777344 259.65625 270.253906 260.179688 269.609375 260.179688 L 260.429688 260.179688 C 259.78125 260.179688 259.257812 259.660156 259.257812 259.015625 L 259.257812 256.46875 C 259.257812 255.824219 259.78125 255.300781 260.429688 255.300781 Z M 260.429688 255.300781 " fill-opacity="1" fill-rule="nonzero"/><path fill="#ffffff" d="M 332.925781 328.519531 L 270.703125 328.519531 C 269.660156 328.519531 268.820312 327.675781 268.820312 326.640625 C 268.820312 325.601562 269.660156 324.761719 270.703125 324.761719 L 332.925781 324.761719 C 333.964844 324.761719 334.808594 325.601562 334.808594 326.640625 C 334.808594 327.675781 333.964844 328.519531 332.925781 328.519531 Z M 332.925781 328.519531 " fill-opacity="1" fill-rule="nonzero"/><path fill="#ffffff" d="M 332.925781 337.6875 L 260.566406 337.6875 C 259.527344 337.6875 258.683594 336.847656 258.683594 335.808594 C 258.683594 334.769531 259.527344 333.929688 260.566406 333.929688 L 332.925781 333.929688 C 333.964844 333.929688 334.808594 334.769531 334.808594 335.808594 C 334.808594 336.84375 333.964844 337.6875 332.925781 337.6875 Z M 332.925781 337.6875 " fill-opacity="1" fill-rule="nonzero"/><path fill="#776cff" d="M 308.578125 360.667969 L 282.664062 360.667969 C 281.625 360.667969 280.78125 359.828125 280.78125 358.789062 C 280.78125 357.75 281.625 356.910156 282.664062 356.910156 L 308.578125 356.910156 C 309.617188 356.910156 310.457031 357.75 310.457031 358.789062 C 310.457031 359.828125 309.617188 360.667969 308.578125 360.667969 Z M 308.578125 360.667969 " fill-opacity="1" fill-rule="nonzero"/></svg>