<svg xmlns="http://www.w3.org/2000/svg" xmlns:xlink="http://www.w3.org/1999/xlink" width="500" zoomAndPan="magnify" viewBox="0 0 375 374.999991" height="500" preserveAspectRatio="xMidYMid meet" version="1.0"><defs><clipPath id="97ef2ad4b5"><path d="M 3 60.578125 L 372 60.578125 L 372 204 L 3 204 Z M 3 60.578125 " clip-rule="nonzero"/></clipPath><clipPath id="2b8cac98fe"><path d="M 4 198 L 370 198 L 370 314.078125 L 4 314.078125 Z M 4 198 " clip-rule="nonzero"/></clipPath></defs><path fill="#51aee5" d="M 140.105469 188.515625 L -0.0117188 82.140625 L -0.0117188 294.878906 Z M 140.105469 188.515625 " fill-opacity="1" fill-rule="nonzero"/><g clip-path="url(#97ef2ad4b5)"><path fill="#51aee5" d="M 197.582031 201.394531 L 371.101562 65.007812 C 368.53125 62.289062 364.902344 60.574219 360.914062 60.574219 L 14.058594 60.574219 C 9.800781 60.574219 6.042969 62.503906 3.4375 65.484375 L 182.675781 201.527344 C 186.609375 204.519531 193.703125 204.460938 197.582031 201.394531 " fill-opacity="1" fill-rule="nonzero"/></g><g clip-path="url(#2b8cac98fe)"><path fill="#51aee5" d="M 207.09375 213.46875 C 202.320312 217.207031 196.175781 219.085938 190.015625 219.085938 C 184.035156 219.085938 178.074219 217.308594 173.378906 213.757812 L 152.8125 198.160156 L 4.78125 310.519531 C 7.277344 312.710938 10.492188 314.078125 14.058594 314.078125 L 360.910156 314.078125 C 364.230469 314.078125 367.273438 312.863281 369.699219 310.921875 L 226.390625 198.277344 L 207.09375 213.46875 " fill-opacity="1" fill-rule="nonzero"/></g><path fill="#51aee5" d="M 374.980469 295.542969 L 374.980469 81.492188 L 238.820312 188.527344 L 374.980469 295.542969 " fill-opacity="1" fill-rule="nonzero"/></svg>