<svg xmlns="http://www.w3.org/2000/svg" xmlns:xlink="http://www.w3.org/1999/xlink" width="500" zoomAndPan="magnify" viewBox="0 0 375 374.999991" height="500" preserveAspectRatio="xMidYMid meet" version="1.0"><defs><clipPath id="1129bdeaba"><path d="M 68.589844 37.5 L 306.339844 37.5 L 306.339844 337.363281 L 68.589844 337.363281 Z M 68.589844 37.5 " clip-rule="nonzero"/></clipPath></defs><g clip-path="url(#1129bdeaba)"><path fill="#332d2d" d="M 96.929688 301.660156 L 152.882812 337.359375 L 269.359375 288.820312 C 299.257812 276.28125 306.339844 246.699219 306.339844 214.242188 Z M 127.789062 170.800781 L 269.359375 111.945312 C 299.257812 99.402344 306.339844 69.824219 306.339844 37.367188 L 68.589844 136.722656 L 68.589844 217.722656 L 127.789062 192.941406 Z M 82.761719 292.960938 L 89.84375 297.160156 L 157.085938 269.199219 L 150.003906 264.699219 L 143.21875 260.199219 L 136.132812 256 L 190.527344 233.203125 C 220.425781 220.660156 227.511719 191.382812 227.511719 158.921875 L 68.589844 225.160156 L 68.589844 283.960938 Z M 82.761719 292.960938 " fill-opacity="1" fill-rule="nonzero"/></g></svg>