<svg xmlns="http://www.w3.org/2000/svg" xmlns:xlink="http://www.w3.org/1999/xlink" width="500" zoomAndPan="magnify" viewBox="0 0 375 374.999991" height="500" preserveAspectRatio="xMidYMid meet" version="1.0"><path fill="#363e4a" d="M 271.550781 51.722656 L 271.550781 271.550781 C 271.550781 285.847656 259.984375 297.414062 245.691406 297.414062 L 25.863281 297.414062 C 11.566406 297.414062 0 285.847656 0 271.550781 L 0 51.722656 L 6.464844 45.257812 L 265.085938 45.257812 L 271.550781 51.722656 " fill-opacity="1" fill-rule="nonzero"/><path fill="#dee4e5" d="M 271.550781 25.863281 L 271.550781 51.722656 L 0 51.722656 L 0 25.863281 C 0 11.566406 11.566406 0 25.863281 0 L 245.691406 0 C 259.984375 0 271.550781 11.566406 271.550781 25.863281 " fill-opacity="1" fill-rule="nonzero"/><path fill="#56616f" d="M 375 129.308594 L 375 349.136719 C 375 363.433594 363.433594 375 349.136719 375 L 129.308594 375 C 115.015625 375 103.449219 363.433594 103.449219 349.136719 L 103.449219 129.308594 L 109.914062 122.84375 L 368.535156 122.84375 L 375 129.308594 " fill-opacity="1" fill-rule="nonzero"/><path fill="#9ca6b3" d="M 142.242188 200.429688 C 142.242188 212.90625 151.03125 223.261719 162.800781 225.761719 L 186.515625 182.273438 C 181.792969 177.550781 175.277344 174.570312 168.101562 174.570312 C 160.070312 174.570312 152.976562 178.179688 148.304688 183.886719 C 146.886719 185.503906 145.726562 187.296875 144.816406 189.242188 C 143.859375 191.113281 143.199219 193.183594 142.746094 195.328125 C 142.445312 196.945312 142.242188 198.6875 142.242188 200.429688 " fill-opacity="1" fill-rule="nonzero"/><path fill="#dee4e5" d="M 375 103.449219 L 375 129.308594 L 103.449219 129.308594 L 103.449219 103.449219 C 103.449219 101.175781 103.699219 99.054688 104.28125 96.984375 C 105.445312 92.511719 107.714844 88.523438 110.824219 85.339844 C 111.277344 84.886719 111.730469 84.429688 112.238281 84.050781 C 116.757812 80.035156 122.769531 77.585938 129.308594 77.585938 L 349.136719 77.585938 C 363.433594 77.585938 375 89.152344 375 103.449219 " fill-opacity="1" fill-rule="nonzero"/><path fill="#9ca6b3" d="M 336.207031 200.429688 C 336.207031 212.90625 327.417969 223.261719 315.648438 225.761719 L 291.933594 182.273438 C 296.628906 177.550781 303.171875 174.570312 310.34375 174.570312 C 318.351562 174.570312 325.472656 178.179688 330.121094 183.886719 C 331.558594 185.503906 332.722656 187.296875 333.605469 189.242188 C 334.589844 191.113281 335.222656 193.183594 335.675781 195.328125 C 336.003906 196.945312 336.207031 198.6875 336.207031 200.429688 " fill-opacity="1" fill-rule="nonzero"/><path fill="#dee4e5" d="M 316.808594 239.222656 C 316.808594 282.082031 282.082031 316.808594 239.222656 316.808594 C 196.363281 316.808594 161.636719 282.082031 161.636719 239.222656 C 161.636719 196.363281 196.363281 161.636719 239.222656 161.636719 C 282.082031 161.636719 316.808594 196.363281 316.808594 239.222656 " fill-opacity="1" fill-rule="nonzero"/><path fill="#5ec9eb" d="M 290.949219 239.222656 C 290.949219 257.078125 267.789062 271.550781 239.222656 271.550781 C 210.660156 271.550781 187.5 257.078125 187.5 239.222656 C 187.5 221.367188 210.660156 206.898438 239.222656 206.898438 C 267.789062 206.898438 290.949219 221.367188 290.949219 239.222656 " fill-opacity="1" fill-rule="nonzero"/><path fill="#a1da72" d="M 239.222656 32.328125 L 232.757812 32.328125 C 229.199219 32.328125 226.292969 29.421875 226.292969 25.863281 C 226.292969 22.300781 229.199219 19.398438 232.757812 19.398438 L 239.222656 19.398438 C 242.785156 19.398438 245.691406 22.300781 245.691406 25.863281 C 245.691406 29.421875 242.785156 32.328125 239.222656 32.328125 " fill-opacity="1" fill-rule="nonzero"/><path fill="#fcce62" d="M 206.898438 32.328125 L 200.429688 32.328125 C 196.871094 32.328125 193.964844 29.421875 193.964844 25.863281 C 193.964844 22.300781 196.871094 19.398438 200.429688 19.398438 L 206.898438 19.398438 C 210.457031 19.398438 213.363281 22.300781 213.363281 25.863281 C 213.363281 29.421875 210.457031 32.328125 206.898438 32.328125 " fill-opacity="1" fill-rule="nonzero"/><path fill="#f25080" d="M 174.570312 32.328125 L 168.101562 32.328125 C 164.542969 32.328125 161.636719 29.421875 161.636719 25.863281 C 161.636719 22.300781 164.542969 19.398438 168.101562 19.398438 L 174.570312 19.398438 C 178.128906 19.398438 181.035156 22.300781 181.035156 25.863281 C 181.035156 29.421875 178.128906 32.328125 174.570312 32.328125 " fill-opacity="1" fill-rule="nonzero"/><path fill="#5ec9eb" d="M 126.28125 186.71875 L 141.785156 194.949219 C 142.089844 195.128906 142.445312 195.253906 142.746094 195.328125 C 143.199219 193.183594 143.859375 191.113281 144.816406 189.242188 C 145.726562 187.296875 146.886719 185.503906 148.304688 183.886719 C 148.175781 183.738281 148.050781 183.609375 147.847656 183.558594 L 132.339844 175.351562 C 129.160156 173.660156 125.292969 174.820312 123.601562 178.003906 C 121.9375 181.160156 123.097656 185.101562 126.28125 186.71875 " fill-opacity="1" fill-rule="nonzero"/><path fill="#a1da72" d="M 342.671875 109.914062 L 336.207031 109.914062 C 332.644531 109.914062 329.742188 107.007812 329.742188 103.449219 C 329.742188 99.886719 332.644531 96.984375 336.207031 96.984375 L 342.671875 96.984375 C 346.234375 96.984375 349.136719 99.886719 349.136719 103.449219 C 349.136719 107.007812 346.234375 109.914062 342.671875 109.914062 " fill-opacity="1" fill-rule="nonzero"/><path fill="#fcce62" d="M 310.34375 109.914062 L 303.878906 109.914062 C 300.316406 109.914062 297.414062 107.007812 297.414062 103.449219 C 297.414062 99.886719 300.316406 96.984375 303.878906 96.984375 L 310.34375 96.984375 C 313.90625 96.984375 316.808594 99.886719 316.808594 103.449219 C 316.808594 107.007812 313.90625 109.914062 310.34375 109.914062 " fill-opacity="1" fill-rule="nonzero"/><path fill="#f25080" d="M 278.015625 109.914062 L 271.550781 109.914062 C 267.992188 109.914062 265.085938 107.007812 265.085938 103.449219 C 265.085938 99.886719 267.992188 96.984375 271.550781 96.984375 L 278.015625 96.984375 C 281.578125 96.984375 284.484375 99.886719 284.484375 103.449219 C 284.484375 107.007812 281.578125 109.914062 278.015625 109.914062 " fill-opacity="1" fill-rule="nonzero"/><path fill="#a1da72" d="M 32.328125 96.984375 L 25.863281 96.984375 C 22.300781 96.984375 19.398438 94.078125 19.398438 90.515625 C 19.398438 86.957031 22.300781 84.050781 25.863281 84.050781 L 32.328125 84.050781 C 35.890625 84.050781 38.792969 86.957031 38.792969 90.515625 C 38.792969 94.078125 35.890625 96.984375 32.328125 96.984375 " fill-opacity="1" fill-rule="nonzero"/><path fill="#a1da72" d="M 32.328125 122.84375 L 25.863281 122.84375 C 22.300781 122.84375 19.398438 119.941406 19.398438 116.378906 C 19.398438 112.816406 22.300781 109.914062 25.863281 109.914062 L 32.328125 109.914062 C 35.890625 109.914062 38.792969 112.816406 38.792969 116.378906 C 38.792969 119.941406 35.890625 122.84375 32.328125 122.84375 " fill-opacity="1" fill-rule="nonzero"/><path fill="#a1da72" d="M 32.328125 148.707031 L 25.863281 148.707031 C 22.300781 148.707031 19.398438 145.800781 19.398438 142.242188 C 19.398438 138.679688 22.300781 135.777344 25.863281 135.777344 L 32.328125 135.777344 C 35.890625 135.777344 38.792969 138.679688 38.792969 142.242188 C 38.792969 145.800781 35.890625 148.707031 32.328125 148.707031 " fill-opacity="1" fill-rule="nonzero"/><path fill="#a1da72" d="M 32.328125 174.570312 L 25.863281 174.570312 C 22.300781 174.570312 19.398438 171.664062 19.398438 168.101562 C 19.398438 164.542969 22.300781 161.636719 25.863281 161.636719 L 32.328125 161.636719 C 35.890625 161.636719 38.792969 164.542969 38.792969 168.101562 C 38.792969 171.664062 35.890625 174.570312 32.328125 174.570312 " fill-opacity="1" fill-rule="nonzero"/><path fill="#a1da72" d="M 32.328125 200.429688 L 25.863281 200.429688 C 22.300781 200.429688 19.398438 197.527344 19.398438 193.964844 C 19.398438 190.40625 22.300781 187.5 25.863281 187.5 L 32.328125 187.5 C 35.890625 187.5 38.792969 190.40625 38.792969 193.964844 C 38.792969 197.527344 35.890625 200.429688 32.328125 200.429688 " fill-opacity="1" fill-rule="nonzero"/><path fill="#a1da72" d="M 32.328125 226.292969 L 25.863281 226.292969 C 22.300781 226.292969 19.398438 223.386719 19.398438 219.828125 C 19.398438 216.265625 22.300781 213.363281 25.863281 213.363281 L 32.328125 213.363281 C 35.890625 213.363281 38.792969 216.265625 38.792969 219.828125 C 38.792969 223.386719 35.890625 226.292969 32.328125 226.292969 " fill-opacity="1" fill-rule="nonzero"/><path fill="#a1da72" d="M 32.328125 252.15625 L 25.863281 252.15625 C 22.300781 252.15625 19.398438 249.25 19.398438 245.691406 C 19.398438 242.128906 22.300781 239.222656 25.863281 239.222656 L 32.328125 239.222656 C 35.890625 239.222656 38.792969 242.128906 38.792969 245.691406 C 38.792969 249.25 35.890625 252.15625 32.328125 252.15625 " fill-opacity="1" fill-rule="nonzero"/><path fill="#f25080" d="M 58.191406 135.777344 L 103.449219 135.777344 L 103.449219 148.707031 L 58.191406 148.707031 C 54.628906 148.707031 51.722656 145.800781 51.722656 142.242188 C 51.722656 138.679688 54.628906 135.777344 58.191406 135.777344 " fill-opacity="1" fill-rule="nonzero"/><path fill="#f25080" d="M 112.238281 84.050781 C 111.730469 84.429688 111.277344 84.886719 110.824219 85.339844 C 107.714844 88.523438 105.445312 92.511719 104.28125 96.984375 L 58.191406 96.984375 C 54.628906 96.984375 51.722656 94.078125 51.722656 90.515625 C 51.722656 86.957031 54.628906 84.050781 58.191406 84.050781 L 112.238281 84.050781 " fill-opacity="1" fill-rule="nonzero"/><path fill="#f25080" d="M 58.191406 239.222656 L 103.449219 239.222656 L 103.449219 252.15625 L 58.191406 252.15625 C 54.628906 252.15625 51.722656 249.25 51.722656 245.691406 C 51.722656 242.128906 54.628906 239.222656 58.191406 239.222656 " fill-opacity="1" fill-rule="nonzero"/><path fill="#f25080" d="M 58.191406 161.636719 L 103.449219 161.636719 L 103.449219 174.570312 L 58.191406 174.570312 C 54.628906 174.570312 51.722656 171.664062 51.722656 168.101562 C 51.722656 164.542969 54.628906 161.636719 58.191406 161.636719 " fill-opacity="1" fill-rule="nonzero"/><path fill="#f25080" d="M 58.191406 213.363281 L 103.449219 213.363281 L 103.449219 226.292969 L 58.191406 226.292969 C 54.628906 226.292969 51.722656 223.386719 51.722656 219.828125 C 51.722656 216.265625 54.628906 213.363281 58.191406 213.363281 " fill-opacity="1" fill-rule="nonzero"/><path fill="#f25080" d="M 58.191406 109.914062 L 103.449219 109.914062 L 103.449219 122.84375 L 58.191406 122.84375 C 54.628906 122.84375 51.722656 119.941406 51.722656 116.378906 C 51.722656 112.816406 54.628906 109.914062 58.191406 109.914062 " fill-opacity="1" fill-rule="nonzero"/><path fill="#f25080" d="M 58.191406 187.5 L 103.449219 187.5 L 103.449219 200.429688 L 58.191406 200.429688 C 54.628906 200.429688 51.722656 197.527344 51.722656 193.964844 C 51.722656 190.40625 54.628906 187.5 58.191406 187.5 " fill-opacity="1" fill-rule="nonzero"/><path fill="#f1f4f5" d="M 219.828125 252.15625 C 216.265625 252.15625 213.363281 249.25 213.363281 245.691406 L 213.363281 232.757812 C 213.363281 229.199219 216.265625 226.292969 219.828125 226.292969 C 223.386719 226.292969 226.292969 229.199219 226.292969 232.757812 L 226.292969 245.691406 C 226.292969 249.25 223.386719 252.15625 219.828125 252.15625 " fill-opacity="1" fill-rule="nonzero"/><path fill="#f1f4f5" d="M 258.621094 252.15625 C 255.058594 252.15625 252.15625 249.25 252.15625 245.691406 L 252.15625 232.757812 C 252.15625 229.199219 255.058594 226.292969 258.621094 226.292969 C 262.183594 226.292969 265.085938 229.199219 265.085938 232.757812 L 265.085938 245.691406 C 265.085938 249.25 262.183594 252.15625 258.621094 252.15625 " fill-opacity="1" fill-rule="nonzero"/><path fill="#5ec9eb" d="M 352.167969 186.71875 L 336.660156 194.949219 C 336.332031 195.128906 336.003906 195.253906 335.675781 195.328125 C 335.222656 193.183594 334.589844 191.113281 333.605469 189.242188 C 332.722656 187.296875 331.558594 185.503906 330.121094 183.886719 C 330.273438 183.738281 330.371094 183.609375 330.574219 183.558594 L 346.105469 175.351562 C 349.265625 173.660156 353.152344 174.820312 354.820312 178.003906 C 356.511719 181.160156 355.351562 185.101562 352.167969 186.71875 " fill-opacity="1" fill-rule="nonzero"/><path fill="#dee4e5" d="M 232.757812 349.136719 L 155.171875 349.136719 C 151.609375 349.136719 148.707031 346.234375 148.707031 342.671875 C 148.707031 339.109375 151.609375 336.207031 155.171875 336.207031 L 232.757812 336.207031 C 236.320312 336.207031 239.222656 339.109375 239.222656 342.671875 C 239.222656 346.234375 236.320312 349.136719 232.757812 349.136719 " fill-opacity="1" fill-rule="nonzero"/><path fill="#dee4e5" d="M 265.085938 349.136719 L 258.621094 349.136719 C 255.058594 349.136719 252.15625 346.234375 252.15625 342.671875 C 252.15625 339.109375 255.058594 336.207031 258.621094 336.207031 L 265.085938 336.207031 C 268.648438 336.207031 271.550781 339.109375 271.550781 342.671875 C 271.550781 346.234375 268.648438 349.136719 265.085938 349.136719 " fill-opacity="1" fill-rule="nonzero"/><path fill="#dee4e5" d="M 323.277344 349.136719 L 290.949219 349.136719 C 287.386719 349.136719 284.484375 346.234375 284.484375 342.671875 C 284.484375 339.109375 287.386719 336.207031 290.949219 336.207031 L 323.277344 336.207031 C 326.835938 336.207031 329.742188 339.109375 329.742188 342.671875 C 329.742188 346.234375 326.835938 349.136719 323.277344 349.136719 " fill-opacity="1" fill-rule="nonzero"/></svg>