<svg xmlns="http://www.w3.org/2000/svg" xmlns:xlink="http://www.w3.org/1999/xlink" width="500" zoomAndPan="magnify" viewBox="0 0 375 374.999991" height="500" preserveAspectRatio="xMidYMid meet" version="1.0"><path fill="#2f2e2d" d="M 168.675781 279.464844 C 168.167969 278.945312 167.289062 279.167969 167.101562 279.875 L 159.835938 306.863281 C 159.484375 308.144531 160.753906 309.273438 161.988281 308.769531 L 185.761719 299.042969 C 186.386719 298.796875 186.550781 298.007812 186.09375 297.527344 L 168.675781 279.464844 " fill-opacity="1" fill-rule="nonzero"/><path fill="#2f2e2d" d="M 366.53125 154.054688 C 366.070312 153.996094 365.601562 153.984375 365.097656 154.042969 L 335.316406 156.816406 L 103.578125 189.394531 C 100.296875 189.851562 98.921875 193.851562 101.214844 196.226562 L 133.886719 230.09375 L 142.078125 238.574219 L 146.757812 298.726562 C 146.875 300.183594 148.929688 300.382812 149.304688 298.960938 L 160.425781 257.636719 L 160.554688 257.164062 L 288.621094 196.074219 C 290.160156 195.34375 291.996094 195.96875 292.769531 197.484375 C 293.535156 198.976562 292.992188 200.8125 291.535156 201.648438 L 173.316406 269.527344 L 172.847656 271.265625 L 235.464844 335.441406 C 237.191406 337.238281 240.117188 337.0625 241.613281 335.074219 L 368.964844 166.742188 L 370.820312 164.296875 C 373.875 160.226562 371.21875 154.617188 366.53125 154.054688 " fill-opacity="1" fill-rule="nonzero"/><path fill="#2f2e2d" d="M 129.972656 306.144531 C 126.496094 306.699219 122.535156 306.980469 118.171875 306.980469 C 117.996094 306.980469 117.820312 306.957031 117.65625 306.980469 C 114.613281 306.980469 112.15625 309.4375 112.132812 312.472656 C 112.121094 315.519531 114.578125 318 117.621094 318.011719 C 117.808594 318.011719 117.984375 318.011719 118.171875 318.011719 C 123.121094 318.011719 127.667969 317.695312 131.710938 317.035156 C 134.722656 316.554688 136.765625 313.71875 136.285156 310.710938 C 135.800781 307.699219 132.957031 305.664062 129.972656 306.144531 " fill-opacity="1" fill-rule="nonzero"/><path fill="#2f2e2d" d="M 45.917969 117.667969 C 47.363281 117.667969 48.808594 117.105469 49.890625 115.976562 C 55.355469 110.308594 61.515625 104.863281 68.191406 99.804688 C 70.621094 97.96875 71.09375 94.5 69.257812 92.078125 C 67.414062 89.644531 63.957031 89.175781 61.527344 91.007812 C 54.402344 96.40625 47.808594 102.226562 41.945312 108.320312 C 39.84375 110.507812 39.902344 114 42.097656 116.117188 C 43.167969 117.152344 44.542969 117.667969 45.917969 117.667969 " fill-opacity="1" fill-rule="nonzero"/><path fill="#2f2e2d" d="M 85.984375 87.023438 C 86.910156 87.023438 87.851562 86.785156 88.722656 86.292969 C 95.5625 82.363281 103 78.613281 110.792969 75.132812 C 113.578125 73.898438 114.835938 70.628906 113.589844 67.851562 C 112.355469 65.066406 109.089844 63.820312 106.316406 65.054688 C 98.171875 68.675781 90.402344 72.605469 83.234375 76.71875 C 80.589844 78.238281 79.683594 81.601562 81.1875 84.246094 C 82.210938 86.023438 84.066406 87.023438 85.984375 87.023438 " fill-opacity="1" fill-rule="nonzero"/><path fill="#2f2e2d" d="M 15.996094 159.109375 C 16.664062 159.394531 17.371094 159.523438 18.066406 159.523438 C 20.226562 159.523438 22.296875 158.230469 23.1875 156.125 C 26.328125 148.714844 30.179688 141.566406 34.636719 134.875 C 36.328125 132.332031 35.644531 128.910156 33.109375 127.21875 C 30.582031 125.535156 27.160156 126.207031 25.46875 128.746094 C 20.625 136.003906 16.441406 143.765625 13.105469 151.65625 C 13.058594 151.75 12.988281 151.914062 12.953125 152.007812 C 11.835938 154.808594 13.199219 157.957031 15.996094 159.109375 " fill-opacity="1" fill-rule="nonzero"/><path fill="#2f2e2d" d="M 132.078125 66.300781 C 132.6875 66.300781 133.3125 66.195312 133.910156 65.984375 C 141.398438 63.347656 149.398438 60.820312 157.722656 58.46875 C 160.648438 57.632812 162.351562 54.589844 161.527344 51.660156 C 160.695312 48.71875 157.640625 47.015625 154.722656 47.835938 C 146.179688 50.261719 137.953125 52.859375 130.253906 55.5625 C 127.375 56.574219 125.871094 59.726562 126.882812 62.609375 C 127.679688 64.878906 129.808594 66.300781 132.078125 66.300781 " fill-opacity="1" fill-rule="nonzero"/><path fill="#2f2e2d" d="M 48.996094 287.035156 C 42.332031 282.378906 36.480469 276.96875 31.628906 270.949219 C 29.710938 268.585938 26.246094 268.207031 23.871094 270.125 C 21.507812 272.054688 21.132812 275.523438 23.046875 277.898438 C 28.558594 284.707031 35.164062 290.824219 42.675781 296.089844 C 43.636719 296.761719 44.742188 297.078125 45.835938 297.078125 C 47.574219 297.078125 49.28125 296.269531 50.359375 294.726562 C 52.101562 292.234375 51.5 288.789062 48.996094 287.035156 " fill-opacity="1" fill-rule="nonzero"/><path fill="#2f2e2d" d="M 93.421875 304.757812 C 85.3125 303.335938 77.472656 301.160156 70.140625 298.277344 C 67.308594 297.160156 64.113281 298.5625 62.996094 301.40625 C 61.878906 304.242188 63.277344 307.441406 66.109375 308.558594 C 74.136719 311.707031 82.679688 314.085938 91.519531 315.636719 C 91.835938 315.683594 92.164062 315.71875 92.480469 315.71875 C 95.101562 315.71875 97.429688 313.824219 97.898438 311.144531 C 98.429688 308.144531 96.417969 305.289062 93.421875 304.757812 " fill-opacity="1" fill-rule="nonzero"/><path fill="#2f2e2d" d="M 6.289062 208.621094 C 6.382812 208.632812 6.488281 208.632812 6.582031 208.632812 C 9.496094 208.632812 11.929688 206.351562 12.082031 203.410156 C 12.503906 195.472656 13.679688 187.382812 15.585938 179.363281 C 16.277344 176.386719 14.445312 173.421875 11.484375 172.71875 C 8.507812 172.023438 5.546875 173.859375 4.84375 176.820312 C 2.796875 185.488281 1.527344 194.238281 1.082031 202.824219 C 0.90625 205.855469 3.246094 208.46875 6.289062 208.621094 " fill-opacity="1" fill-rule="nonzero"/><path fill="#2f2e2d" d="M 13.222656 227.519531 C 12.753906 224.507812 9.917969 222.425781 6.933594 222.910156 C 3.914062 223.367188 1.859375 226.179688 2.316406 229.1875 C 3.703125 238.183594 6.101562 246.804688 9.4375 254.824219 C 10.320312 256.929688 12.363281 258.210938 14.527344 258.210938 C 15.230469 258.210938 15.949219 258.070312 16.652344 257.789062 C 19.464844 256.613281 20.792969 253.378906 19.617188 250.570312 C 16.617188 243.382812 14.46875 235.632812 13.222656 227.519531 " fill-opacity="1" fill-rule="nonzero"/><path fill="#2f2e2d" d="M 180.851562 52.378906 C 181.261719 52.378906 181.671875 52.332031 182.097656 52.234375 C 186.398438 51.25 190.675781 50.308594 194.90625 49.425781 C 197.878906 48.789062 199.796875 45.875 199.171875 42.886719 C 198.550781 39.898438 195.625 38.007812 192.636719 38.617188 C 188.335938 39.523438 183.988281 40.476562 179.617188 41.488281 C 176.644531 42.167969 174.796875 45.132812 175.480469 48.097656 C 176.066406 50.660156 178.335938 52.378906 180.851562 52.378906 " fill-opacity="1" fill-rule="nonzero"/></svg>